<?xml version="1.0" standalone="no"?><!DOCTYPE svg PUBLIC "-//W3C//DTD SVG 1.1//EN" "http://www.w3.org/Graphics/SVG/1.1/DTD/svg11.dtd"><svg t="1566438753121" class="icon" viewBox="0 0 1024 1024" version="1.1" xmlns="http://www.w3.org/2000/svg" p-id="1221" xmlns:xlink="http://www.w3.org/1999/xlink" width="200" height="200"><defs><style type="text/css"></style></defs><path d="M597.333333 451.669333l97.834667-97.834666a42.666667 42.666667 0 0 1 60.330667 60.330666l-256 256a42.666667 42.666667 0 0 1-60.330667-60.330666L537.002667 512l-97.834667-97.834667a42.666667 42.666667 0 0 1 60.330667-60.330666L597.333333 451.669333zM853.333333 256h-362.666666a42.666667 42.666667 0 0 1 0-85.333333H896a42.666667 42.666667 0 0 1 42.666667 42.666666v597.333334a42.666667 42.666667 0 0 1-42.666667 42.666666H341.333333a42.666667 42.666667 0 0 1-34.730666-17.877333l-213.333334-298.666667a42.666667 42.666667 0 0 1 0-49.578666l213.333334-298.666667A42.666667 42.666667 0 1 1 376.064 238.08L180.437333 512l182.869334 256H853.333333V256z m-200.832 371.498667a42.666667 42.666667 0 0 1 60.330667-60.330667l42.666667 42.666667a42.666667 42.666667 0 0 1-60.330667 60.330666l-42.666667-42.666666z" p-id="1222"></path></svg>